<svg width="28" height="28" viewBox="0 0 28 28" fill="none" xmlns="http://www.w3.org/2000/svg">
<g id="Frame 52">
<path id="Vector" d="M17.08 4.06014C17.29 4.06014 17.5 4.06014 17.92 4.06014V7.21014C17.71 7.21014 17.29 7.21014 16.87 7.21014C16.45 7.21014 16.03 7.21014 15.82 7.42014C15.61 7.63014 15.61 7.84014 15.61 8.33014C15.61 8.75014 15.61 9.03014 15.61 9.45014H17.92V12.1101H15.61V23.6601H12.04V12.0401H10.15V9.38014H12.04V8.47014C12.04 6.93014 12.25 5.81014 12.67 5.32014C13.3 4.41014 14.56 3.99014 16.45 3.99014C16.66 4.06014 16.87 4.06014 17.08 4.06014Z" fill="#121417"/>
</g>
</svg>
