<svg width="28" height="28" viewBox="0 0 28 28" fill="none" xmlns="http://www.w3.org/2000/svg">
<g id="icons / 40x40 / instagram" opacity="0.8">
<path id="Vector" d="M25.1279 9.41145C25.1142 8.47139 24.9401 7.53878 24.6067 6.65957C24.0233 5.15821 22.8354 3.97103 21.3315 3.38985C20.4621 3.06325 19.5428 2.88816 18.6124 2.86829C17.4158 2.81489 17.0364 2.79999 13.9988 2.79999C10.9612 2.79999 10.5719 2.79999 9.38397 2.86829C8.45478 2.88816 7.53554 3.06325 6.66606 3.38985C5.1622 3.97103 3.97304 5.15821 3.3909 6.65957C3.06375 7.52761 2.88712 8.44532 2.86971 9.37296C2.81622 10.5688 2.80005 10.9476 2.80005 13.9801C2.80005 17.0127 2.80005 17.4001 2.86971 18.5873C2.88837 19.5162 3.06375 20.4326 3.3909 21.3032C3.97428 22.8033 5.1622 23.9905 6.66731 24.5716C7.53306 24.9094 8.45229 25.1006 9.38521 25.1304C10.5831 25.1838 10.9625 25.2 14.0001 25.2C17.0376 25.2 17.427 25.2 18.6149 25.1304C19.5441 25.1118 20.4633 24.9367 21.334 24.6101C22.8379 24.0277 24.0258 22.8405 24.6092 21.3404C24.9363 20.4711 25.1117 19.5547 25.1304 18.6245C25.1839 17.4299 25.2001 17.0511 25.2001 14.0174C25.1976 10.9848 25.1976 10.5999 25.1279 9.41145ZM13.9913 19.7149C10.8144 19.7149 8.24083 17.1455 8.24083 13.9739C8.24083 10.8023 10.8144 8.23296 13.9913 8.23296C17.1658 8.23296 19.7419 10.8023 19.7419 13.9739C19.7419 17.1455 17.1658 19.7149 13.9913 19.7149ZM19.9707 9.3593C19.2281 9.3593 18.6298 8.76074 18.6298 8.02061C18.6298 7.28049 19.2281 6.68193 19.9707 6.68193C20.7108 6.68193 21.3104 7.28049 21.3104 8.02061C21.3104 8.76074 20.7108 9.3593 19.9707 9.3593Z" fill="#121417"/>
<path id="Vector_2" d="M13.9931 17.479C15.9281 17.479 17.4966 15.9104 17.4966 13.9755C17.4966 12.0406 15.9281 10.472 13.9931 10.472C12.0582 10.472 10.4896 12.0406 10.4896 13.9755C10.4896 15.9104 12.0582 17.479 13.9931 17.479Z" fill="#121417"/>
</g>
</svg>
