<svg width="28" height="28" viewBox="0 0 28 28" fill="none" xmlns="http://www.w3.org/2000/svg">
<g id="Frame 60" opacity="0.8">
<path id="Vector" fill-rule="evenodd" clip-rule="evenodd" d="M21.21 5.24986C20.02 5.17986 17.57 5.10986 13.86 5.10986H13.37C9.79998 5.10986 7.42001 5.17986 6.23001 5.31986C4.62001 5.45986 3.49998 5.87986 2.86998 6.43986C2.30998 6.92986 1.88999 7.83986 1.74999 9.02986C1.67999 9.79986 1.60999 11.4099 1.60999 13.8599V14.2099C1.60999 16.5199 1.67998 18.1299 1.81998 18.8999C2.02998 20.0199 2.38001 20.8599 3.08001 21.3499C3.78001 21.9099 4.96999 22.2599 6.64999 22.3999C7.83999 22.4699 10.29 22.5399 14 22.5399H14.49C18.06 22.5399 20.44 22.4699 21.63 22.3299C23.24 22.1899 24.36 21.7699 24.99 21.2099C25.55 20.7199 25.97 19.8099 26.11 18.6199C26.18 17.8499 26.25 16.2399 26.25 13.7899V13.4399C26.25 11.1299 26.18 9.51986 26.04 8.74986C25.83 7.62986 25.48 6.78986 24.78 6.29986C24.08 5.73986 22.89 5.38986 21.21 5.24986ZM18.48 13.8599L10.78 18.4799V9.23986L18.48 13.8599Z" fill="#121417"/>
</g>
</svg>
