<svg aria-hidden="true" style="position: absolute; width: 0; height: 0; overflow: hidden;" version="1.1"
  xmlns="http://www.w3.org/2000/svg" xmlns:xlink="http://www.w3.org/1999/xlink">
  <defs>
    <symbol id="icon-facebook" viewBox="0 0 32 32">
      <path
        d="M19.52 4.64h.96v3.6h-1.2c-.48 0-.96 0-1.2.24s-.24.48-.24 1.04v1.28h2.64v3.04h-2.64v13.2h-4.08V13.76H11.6v-3.04h2.16V9.68c0-1.76.24-3.04.72-3.6.72-1.04 2.16-1.52 4.32-1.52.24.08.48.08.72.08z" />
    </symbol>
    <symbol id="icon-instagram" viewBox="0 0 32 32">
      <path
        d="M28.718 10.756a9.264 9.264 0 0 0-.596-3.145 6.547 6.547 0 0 0-3.743-3.737 9.42 9.42 0 0 0-3.108-.596c-1.368-.061-1.801-.078-5.273-.078s-3.916 0-5.274.078a9.413 9.413 0 0 0-3.106.596 6.541 6.541 0 0 0-3.743 3.737 9.288 9.288 0 0 0-.596 3.101c-.061 1.367-.08 1.8-.08 5.265s0 3.909.08 5.265a9.335 9.335 0 0 0 .596 3.104 6.548 6.548 0 0 0 3.744 3.735 9.37 9.37 0 0 0 3.106.639c1.369.061 1.803.079 5.274.079s3.916 0 5.274-.079a9.362 9.362 0 0 0 3.108-.595 6.555 6.555 0 0 0 3.743-3.737 9.35 9.35 0 0 0 .596-3.104c.061-1.365.08-1.798.08-5.265-.003-3.466-.003-3.906-.082-5.264zM15.99 22.531c-3.631 0-6.572-2.936-6.572-6.561s2.941-6.561 6.572-6.561c3.628 0 6.572 2.936 6.572 6.561s-2.944 6.561-6.572 6.561zm6.834-11.835a1.53 1.53 0 1 1 0-3.06 1.53 1.53 0 1 1 0 3.06z" />
      <path d="M15.992 19.976a4.004 4.004 0 1 0 0-8.009 4.004 4.004 0 0 0 0 8.009z" />
    </symbol>
    <symbol id="icon-youtube" viewBox="0 0 32 32">
      <path
        d="M24.24 6c-1.36-.08-4.16-.16-8.4-.16h-.56c-4.08 0-6.8.08-8.16.24-1.84.16-3.12.64-3.84 1.28-.64.56-1.12 1.6-1.28 2.96-.08.88-.16 2.72-.16 5.52v.4c0 2.64.08 4.48.24 5.36.24 1.28.64 2.24 1.44 2.8.8.64 2.16 1.04 4.08 1.2 1.36.08 4.16.16 8.4.16h.56c4.08 0 6.8-.08 8.16-.24 1.84-.16 3.12-.64 3.84-1.28.64-.56 1.12-1.6 1.28-2.96.08-.88.16-2.72.16-5.52v-.4c0-2.64-.08-4.48-.24-5.36-.24-1.28-.64-2.24-1.44-2.8-.8-.64-2.16-1.04-4.08-1.2zm-3.12 9.84-8.8 5.28V10.56l8.8 5.28z" />
    </symbol>
    <symbol id="icon-nav" viewBox="0 0 32 32">
      <path stroke-linejoin="miter" stroke-linecap="round" stroke-miterlimit="4" stroke-width="3" d="M6.37 8.379h24.13">
      </path>
      <path stroke-linejoin="miter" stroke-linecap="round" stroke-miterlimit="4" stroke-width="3"
        d="M6.37 22.318h24.13"></path>
      <path stroke-linejoin="miter" stroke-linecap="round" stroke-miterlimit="4" stroke-width="3"
        d="M14.022 15.348h16.478"></path>
    </symbol>
    <symbol id="icon-cross" viewBox="0 0 32 32">
      <path stroke-linejoin="round" stroke-linecap="round" stroke-miterlimit="4" stroke-width="3" d="M24 8l-16 16">
      </path>
      <path stroke-linejoin="round" stroke-linecap="round" stroke-miterlimit="4" stroke-width="3" d="M8 8l16 16"></path>
    </symbol>
    <symbol id="icon-circle" viewBox="0 0 32 32">
      <path d="M16 0c8.837 0 16 7.163 16 16s-7.163 16-16 16c-8.837 0-16-7.163-16-16s7.163-16 16-16z"></path>
    </symbol>
    <symbol id="icon-scroll" viewBox="0 0 32 32">
      <path
        d="M16.947 17.867c-0.124 0.125-0.271 0.224-0.434 0.292s-0.337 0.102-0.513 0.102c-0.176 0-0.35-0.035-0.513-0.102s-0.31-0.167-0.434-0.292l-6.107-6.12c-0.124-0.125-0.271-0.224-0.434-0.292s-0.337-0.103-0.513-0.103c-0.176 0-0.35 0.035-0.513 0.103s-0.31 0.167-0.434 0.292c-0.248 0.25-0.388 0.588-0.388 0.94s0.139 0.69 0.388 0.94l6.12 6.12c0.75 0.749 1.767 1.17 2.827 1.17s2.077-0.421 2.827-1.17l6.12-6.12c0.246-0.248 0.385-0.584 0.387-0.933 0.001-0.175-0.033-0.349-0.099-0.512s-0.164-0.31-0.288-0.435c-0.124-0.125-0.271-0.224-0.434-0.292s-0.337-0.103-0.513-0.103-0.35 0.035-0.513 0.103c-0.163 0.068-0.31 0.167-0.434 0.292l-6.107 6.12z">
      </path>
    </symbol>
    <symbol id="icon-check" viewBox="0 0 20 20">
      <path d="M16.6667 5L7.50001 14.1667L3.33334 10" stroke-width="2" stroke-linecap="round" stroke-linejoin="round" />
    </symbol>
    <symbol id="icon-moon" viewBox="0 0 512 540">
      <path style="fill:#ffd93b"
        d="M146.88 375.528c126.272 0 228.624-102.368 228.624-228.64 0-55.952-20.16-107.136-53.52-146.88C425.056 33.096 499.696 129.64 499.696 243.704c0 141.392-114.608 256-256 256-114.064 0-210.608-74.64-243.696-177.712 39.744 33.376 90.944 53.536 146.88 53.536z" />
      <path style="fill:#f4c534"
        d="M401.92 42.776c34.24 43.504 54.816 98.272 54.816 157.952 0 141.392-114.608 256-256 256-59.68 0-114.448-20.576-157.952-54.816 46.848 59.472 119.344 97.792 200.928 97.792 141.392 0 256-114.608 256-256 0-81.584-38.32-154.064-97.792-200.928z" />
      <path style="fill:#ffd83b"
        d="m128.128 99.944 26.368 53.456 58.976 8.56-42.672 41.6 10.064 58.736-52.736-27.728-52.752 27.728L85.44 203.56l-42.672-41.6 58.976-8.56zM276.864 82.84l13.664 27.712 30.576 4.432-22.128 21.568 5.232 30.432-27.344-14.368-27.344 14.368 5.232-30.432-22.128-21.568 30.576-4.432z" />
    </symbol>
    <symbol id="icon-sun" viewBox="0 0 512 540">
      <circle style="fill:#ffd347" cx="255.997" cy="255.997" r="144.824" />
      <path style="fill:#ffd347"
        d="M256 56.849a7.736 7.736 0 0 1-7.737-7.737V7.737C248.263 3.463 251.727 0 256 0s7.737 3.463 7.737 7.737v41.376A7.736 7.736 0 0 1 256 56.849zM152.563 84.568a7.732 7.732 0 0 1-6.707-3.869l-20.687-35.832a7.737 7.737 0 0 1 13.401-7.737l20.687 35.832a7.737 7.737 0 0 1-6.694 11.606zM76.823 160.294a7.696 7.696 0 0 1-3.861-1.038L37.13 138.569a7.738 7.738 0 0 1 7.737-13.401l35.832 20.687a7.738 7.738 0 0 1-3.876 14.439zM49.112 263.737H7.737C3.464 263.737 0 260.274 0 256s3.464-7.737 7.737-7.737h41.376a7.737 7.737 0 1 1-.001 15.474zM41.005 387.869a7.737 7.737 0 0 1-3.875-14.438l35.832-20.687a7.738 7.738 0 0 1 7.737 13.401l-35.832 20.687a7.71 7.71 0 0 1-3.862 1.037zM131.862 478.74a7.738 7.738 0 0 1-6.693-11.607l20.687-35.832a7.738 7.738 0 0 1 13.401 7.737L138.57 474.87a7.736 7.736 0 0 1-6.708 3.87zM256 512a7.736 7.736 0 0 1-7.737-7.737v-41.376c0-4.274 3.464-7.737 7.737-7.737s7.737 3.463 7.737 7.737v41.376A7.736 7.736 0 0 1 256 512zM380.138 478.74a7.732 7.732 0 0 1-6.707-3.869l-20.687-35.832a7.737 7.737 0 0 1 13.401-7.737l20.687 35.832a7.737 7.737 0 0 1-6.694 11.606zM470.995 387.869a7.696 7.696 0 0 1-3.861-1.038l-35.832-20.687a7.738 7.738 0 0 1 7.737-13.401l35.832 20.687a7.738 7.738 0 0 1-3.876 14.439zM504.263 263.737h-41.376c-4.273 0-7.737-3.463-7.737-7.737s3.464-7.737 7.737-7.737h41.376c4.273 0 7.737 3.463 7.737 7.737s-3.464 7.737-7.737 7.737zM435.177 160.294a7.737 7.737 0 0 1-3.875-14.438l35.832-20.687a7.738 7.738 0 0 1 7.737 13.401l-35.832 20.687a7.71 7.71 0 0 1-3.862 1.037zM359.437 84.568a7.738 7.738 0 0 1-6.693-11.607l20.687-35.832a7.738 7.738 0 0 1 13.401 7.737l-20.687 35.832a7.735 7.735 0 0 1-6.708 3.87z" />
      <path style="fill:#ffbe31"
        d="M256 111.18c-5.242 0-10.418.286-15.516.828 72.685 7.743 129.303 69.252 129.303 143.991s-56.619 136.249-129.303 143.992c5.098.544 10.273.828 15.516.828 79.982 0 144.82-64.838 144.82-144.82S335.983 111.18 256 111.18z" />
    </symbol>
  </defs>
</svg>